<svg id="svg" version="1.1" xmlns="http://www.w3.org/2000/svg" xmlns:xlink="http://www.w3.org/1999/xlink" width="400" height="400" viewBox="0, 0, 400,400"><g id="svgg"><path id="path0" d="M68.469 113.486 C 67.081 113.751,64.475 116.654,63.928 118.545 C 63.563 119.808,63.462 139.430,63.505 201.474 L 63.560 282.747 64.583 284.766 C 66.239 288.034,66.495 288.116,75.949 288.434 C 93.701 289.031,98.635 288.300,99.569 284.935 C 99.852 283.915,99.996 273.851,99.998 254.944 C 100.000 227.939,100.037 226.442,100.734 225.582 C 102.119 223.872,104.280 225.245,112.402 233.000 C 114.319 234.831,117.633 239.031,120.921 243.800 C 122.187 245.637,124.742 250.273,124.999 251.200 C 125.152 251.750,125.815 253.326,126.473 254.702 C 128.186 258.286,129.098 264.705,129.329 274.800 C 129.651 288.850,129.457 288.699,147.403 288.826 C 163.617 288.941,163.841 288.786,164.505 277.000 C 165.310 262.716,163.824 248.080,160.992 242.400 C 160.279 240.970,159.574 239.277,159.425 238.639 C 159.276 238.000,158.651 236.740,158.036 235.839 C 157.421 234.937,156.593 233.508,156.196 232.663 C 155.799 231.818,155.226 231.031,154.922 230.915 C 154.619 230.798,154.080 230.140,153.725 229.452 C 152.801 227.660,147.598 221.619,144.933 219.244 L 142.666 217.223 143.159 215.578 C 143.501 214.436,144.025 213.729,144.873 213.266 C 146.938 212.139,152.931 207.036,154.623 204.964 C 156.986 202.071,158.476 200.109,159.600 198.411 C 160.150 197.579,160.943 196.417,161.361 195.827 C 162.262 194.557,163.998 187.688,163.999 185.389 C 164.001 181.189,163.452 181.089,142.057 181.398 C 125.069 181.643,124.524 181.676,121.757 182.603 C 120.193 183.127,117.763 183.824,116.357 184.152 C 114.951 184.480,112.572 185.390,111.071 186.174 C 109.570 186.958,108.130 187.600,107.871 187.600 C 107.612 187.601,106.868 188.059,106.217 188.619 C 105.262 189.439,101.949 191.200,101.359 191.200 C 100.074 191.200,100.000 189.158,100.000 153.446 C 100.000 114.685,100.146 116.762,97.278 114.657 L 95.293 113.200 82.346 113.254 C 75.226 113.284,68.981 113.389,68.469 113.486 M153.509 113.425 C 153.354 113.579,149.306 113.689,144.514 113.668 C 130.688 113.609,130.763 113.537,130.323 127.073 C 129.955 138.408,128.674 146.820,126.803 150.200 C 126.194 151.300,125.472 152.920,125.198 153.800 C 124.925 154.680,124.394 155.760,124.017 156.200 C 123.641 156.640,122.825 157.890,122.204 158.977 C 120.704 161.605,118.174 164.873,115.413 167.750 C 110.569 172.796,110.529 172.787,138.294 172.794 L 161.187 172.800 162.427 171.693 L 163.666 170.585 163.621 145.193 C 163.568 115.619,163.643 116.252,160.000 114.405 C 158.499 113.643,153.973 112.960,153.509 113.425 M230.600 113.561 C 221.473 113.864,219.445 114.734,218.215 118.874 C 217.588 120.984,217.182 240.999,217.798 241.997 C 218.893 243.768,244.522 244.697,246.363 243.032 L 247.212 242.265 247.106 180.232 C 246.998 116.750,246.980 116.000,245.604 116.000 C 245.457 116.000,244.512 115.453,243.503 114.785 C 241.296 113.323,240.383 113.236,230.600 113.561 M259.511 183.491 C 256.357 183.822,256.400 183.571,256.400 201.625 L 256.400 217.542 257.467 218.381 L 258.533 219.220 295.567 219.110 C 326.170 219.019,332.774 218.904,333.600 218.447 C 336.622 216.777,340.032 214.225,340.752 213.093 C 341.205 212.382,341.959 211.327,342.428 210.750 C 345.373 207.127,345.023 196.729,341.791 191.808 C 340.836 190.355,339.998 189.038,339.928 188.883 C 339.616 188.193,334.882 184.996,333.418 184.487 C 330.344 183.417,268.193 182.580,259.511 183.491 " stroke="none" fill="#f6622f" fill-rule="evenodd"></path><path id="path1" d="M195.063 113.871 C 194.914 114.020,191.149 114.249,186.696 114.380 C 176.860 114.670,176.026 114.938,174.547 118.282 L 173.600 120.423 173.600 201.272 L 173.600 282.120 174.664 284.294 C 176.202 287.438,174.164 287.253,209.851 287.498 L 241.902 287.719 243.715 286.841 C 246.587 285.451,246.800 284.541,246.800 273.665 C 246.800 263.842,246.358 260.834,244.791 259.995 C 244.360 259.765,243.732 259.042,243.395 258.390 C 243.057 257.737,242.200 256.937,241.490 256.612 C 240.781 256.288,239.692 255.612,239.072 255.111 C 237.957 254.211,237.771 254.198,223.936 254.000 L 209.929 253.800 208.965 252.678 L 208.000 251.555 207.991 185.678 C 207.981 112.638,208.185 118.381,205.503 115.532 C 203.996 113.932,196.237 112.697,195.063 113.871 M277.200 114.458 C 276.430 114.664,272.797 114.902,269.127 114.985 C 261.502 115.159,259.395 115.776,258.095 118.218 C 257.496 119.344,257.292 172.252,257.884 172.844 C 258.114 173.074,258.909 173.398,259.651 173.564 C 261.308 173.934,291.201 174.128,292.122 173.774 C 293.280 173.330,293.595 170.822,293.605 162.000 C 293.611 156.128,293.794 152.550,294.182 150.720 C 294.872 147.463,294.733 117.370,294.022 116.041 C 292.952 114.042,292.764 113.997,285.471 114.041 C 281.692 114.063,277.970 114.251,277.200 114.458 M258.000 229.192 C 256.958 229.851,257.409 282.614,258.468 283.999 C 258.890 284.549,259.571 285.450,259.982 286.000 C 260.728 286.996,260.756 287.000,267.465 287.016 C 271.169 287.026,277.358 287.187,281.218 287.376 C 290.267 287.818,291.985 287.399,292.970 284.507 C 293.796 282.082,293.937 230.097,293.120 229.280 C 292.520 228.680,258.943 228.596,258.000 229.192 " stroke="none" fill="#107779" fill-rule="evenodd"></path><path id="path2" d="M0.000 200.000 L 0.000 400.000 200.000 400.000 L 400.000 400.000 400.000 200.000 L 400.000 0.000 200.000 0.000 L 0.000 0.000 0.000 200.000 M202.962 112.738 C 204.828 112.812,208.127 116.012,208.801 118.400 C 209.053 119.295,209.196 143.472,209.198 185.424 C 209.200 241.430,209.283 251.161,209.767 251.824 C 210.305 252.560,211.066 252.610,224.698 252.800 L 239.063 253.000 240.995 254.400 C 247.224 258.914,247.992 260.971,247.997 273.167 C 248.004 290.184,250.772 289.000,211.000 289.000 C 174.081 289.000,175.190 289.138,172.823 284.248 L 171.992 282.532 172.096 200.119 L 172.200 117.706 173.978 115.753 C 174.956 114.679,176.036 113.620,176.378 113.400 C 177.157 112.899,195.534 112.441,202.962 112.738 M333.600 114.633 C 337.028 116.004,338.975 117.624,341.944 121.576 C 345.329 126.082,345.084 136.850,341.472 142.333 C 336.001 150.637,332.657 151.728,312.400 151.818 C 293.211 151.903,294.911 150.762,294.732 163.690 C 294.603 172.948,294.578 173.201,293.688 174.090 L 292.777 175.000 275.399 175.000 L 258.022 175.000 257.111 174.089 L 256.200 173.178 256.074 147.489 C 255.916 115.516,255.752 117.411,258.922 114.762 L 261.383 112.706 295.791 112.989 L 330.200 113.273 333.600 114.633 M97.278 114.657 C 100.146 116.762,100.000 114.685,100.000 153.446 C 100.000 189.158,100.074 191.200,101.359 191.200 C 101.949 191.200,105.262 189.439,106.217 188.619 C 106.868 188.059,107.612 187.601,107.871 187.600 C 108.130 187.600,109.570 186.958,111.071 186.174 C 112.572 185.390,114.951 184.480,116.357 184.152 C 117.763 183.824,120.193 183.127,121.757 182.603 C 124.524 181.676,125.069 181.643,142.057 181.398 C 163.452 181.089,164.001 181.189,163.999 185.389 C 163.998 187.688,162.262 194.557,161.361 195.827 C 160.943 196.417,160.150 197.579,159.600 198.411 C 158.476 200.109,156.986 202.071,154.623 204.964 C 152.931 207.036,146.938 212.139,144.873 213.266 C 144.025 213.729,143.501 214.436,143.159 215.578 L 142.666 217.223 144.933 219.244 C 147.598 221.619,152.801 227.660,153.725 229.452 C 154.080 230.140,154.619 230.798,154.922 230.915 C 155.226 231.031,155.799 231.818,156.196 232.663 C 156.593 233.508,157.421 234.937,158.036 235.839 C 158.651 236.740,159.276 238.000,159.425 238.639 C 159.574 239.277,160.279 240.970,160.992 242.400 C 163.824 248.080,165.310 262.716,164.505 277.000 C 163.841 288.786,163.617 288.941,147.403 288.826 C 129.457 288.699,129.651 288.850,129.329 274.800 C 129.098 264.705,128.186 258.286,126.473 254.702 C 125.815 253.326,125.152 251.750,124.999 251.200 C 124.742 250.273,122.187 245.637,120.921 243.800 C 117.633 239.031,114.319 234.831,112.402 233.000 C 104.280 225.245,102.119 223.872,100.734 225.582 C 100.037 226.442,100.000 227.939,99.998 254.944 C 99.996 273.851,99.852 283.915,99.569 284.935 C 98.635 288.300,93.701 289.031,75.949 288.434 C 66.495 288.116,66.239 288.034,64.583 284.766 L 63.560 282.747 63.505 201.474 C 63.444 112.407,63.283 118.048,65.972 115.277 C 67.968 113.220,67.174 113.318,82.346 113.254 L 95.293 113.200 97.278 114.657 M160.000 114.405 C 163.643 116.252,163.568 115.619,163.621 145.193 L 163.666 170.585 162.427 171.693 L 161.187 172.800 138.294 172.794 C 110.529 172.787,110.569 172.796,115.413 167.750 C 118.174 164.873,120.704 161.605,122.204 158.977 C 122.825 157.890,123.641 156.640,124.017 156.200 C 124.394 155.760,124.925 154.680,125.198 153.800 C 125.472 152.920,126.194 151.300,126.803 150.200 C 128.674 146.820,129.955 138.408,130.323 127.073 C 130.763 113.537,130.688 113.609,144.514 113.668 C 149.306 113.689,153.354 113.579,153.509 113.425 C 153.973 112.960,158.499 113.643,160.000 114.405 M243.503 114.785 C 244.512 115.453,245.457 116.000,245.604 116.000 C 246.980 116.000,246.998 116.750,247.106 180.232 L 247.212 242.265 246.363 243.032 C 244.522 244.697,218.893 243.768,217.798 241.997 C 217.182 240.999,217.588 120.984,218.215 118.874 C 219.445 114.734,221.473 113.864,230.600 113.561 C 240.383 113.236,241.296 113.323,243.503 114.785 M326.800 183.577 C 332.952 184.004,338.791 186.364,339.928 188.883 C 339.998 189.038,340.836 190.355,341.791 191.808 C 345.023 196.729,345.373 207.127,342.428 210.750 C 341.959 211.327,341.205 212.382,340.752 213.093 C 340.032 214.225,336.622 216.777,333.600 218.447 C 332.774 218.904,326.170 219.019,295.567 219.110 L 258.533 219.220 257.467 218.381 L 256.400 217.542 256.400 201.625 C 256.400 183.571,256.357 183.822,259.511 183.491 C 262.586 183.168,322.007 183.244,326.800 183.577 M293.689 228.711 L 294.600 229.622 294.600 256.511 C 294.600 287.805,294.759 286.300,291.276 287.933 L 289.000 289.000 275.400 289.000 C 259.194 289.000,258.228 288.750,256.580 284.126 C 255.756 281.817,255.744 230.104,256.567 228.976 C 257.714 227.404,292.136 227.158,293.689 228.711 " stroke="none" fill="#fbfbf4" fill-rule="evenodd"></path><path id="path3" d="M186.000 112.800 C 176.198 113.018,176.547 112.932,173.978 115.753 L 172.200 117.706 172.096 200.119 L 171.992 282.532 172.823 284.248 C 175.190 289.138,174.081 289.000,211.000 289.000 C 250.772 289.000,248.004 290.184,247.997 273.167 C 247.992 260.971,247.224 258.914,240.995 254.400 L 239.063 253.000 224.698 252.800 C 211.066 252.610,210.305 252.560,209.767 251.824 C 209.283 251.161,209.200 241.430,209.198 185.424 C 209.196 143.472,209.053 119.295,208.801 118.400 C 208.127 116.012,204.828 112.812,202.962 112.738 C 199.359 112.594,194.480 112.612,186.000 112.800 M258.922 114.762 C 255.752 117.411,255.916 115.516,256.074 147.489 L 256.200 173.178 257.111 174.089 L 258.022 175.000 275.399 175.000 L 292.777 175.000 293.688 174.090 C 294.578 173.201,294.603 172.948,294.732 163.690 C 294.911 150.762,293.211 151.903,312.400 151.818 C 332.657 151.728,336.001 150.637,341.472 142.333 C 345.084 136.850,345.329 126.082,341.944 121.576 C 338.975 117.624,337.028 116.004,333.600 114.633 L 330.200 113.273 295.791 112.989 L 261.383 112.706 258.922 114.762 M202.949 114.035 C 204.752 114.535,206.207 115.946,207.245 118.200 C 207.952 119.734,207.983 122.533,207.991 185.678 L 208.000 251.555 208.965 252.678 L 209.929 253.800 223.936 254.000 C 237.771 254.198,237.957 254.211,239.072 255.111 C 239.692 255.612,240.781 256.288,241.490 256.612 C 242.200 256.937,243.057 257.737,243.395 258.390 C 243.732 259.042,244.360 259.765,244.791 259.995 C 246.358 260.834,246.800 263.842,246.800 273.665 C 246.800 284.541,246.587 285.451,243.715 286.841 L 241.902 287.719 209.851 287.498 C 174.164 287.253,176.202 287.438,174.664 284.294 L 173.600 282.120 173.600 201.272 L 173.600 120.423 174.547 118.282 C 176.026 114.938,176.860 114.670,186.696 114.380 C 191.149 114.249,194.914 114.020,195.063 113.871 C 195.492 113.441,201.243 113.561,202.949 114.035 M292.974 114.631 C 294.363 116.020,294.439 116.859,294.594 132.430 C 294.718 144.857,294.634 148.586,294.182 150.720 C 293.794 152.550,293.611 156.128,293.605 162.000 C 293.595 170.822,293.280 173.330,292.122 173.774 C 291.201 174.128,261.308 173.934,259.651 173.564 C 258.909 173.398,258.114 173.074,257.884 172.844 C 257.292 172.252,257.496 119.344,258.095 118.218 C 259.395 115.776,261.502 115.159,269.127 114.985 C 272.797 114.902,276.430 114.664,277.200 114.458 C 279.777 113.766,292.246 113.903,292.974 114.631 M262.667 228.000 C 257.785 228.176,257.066 228.291,256.567 228.976 C 255.744 230.104,255.756 281.817,256.580 284.126 C 258.228 288.750,259.194 289.000,275.400 289.000 L 289.000 289.000 291.276 287.933 C 294.759 286.300,294.600 287.805,294.600 256.511 L 294.600 229.622 293.689 228.711 C 292.723 227.745,278.644 227.423,262.667 228.000 M293.120 229.280 C 293.937 230.097,293.796 282.082,292.970 284.507 C 291.985 287.399,290.267 287.818,281.218 287.376 C 277.358 287.187,271.169 287.026,267.465 287.016 C 260.756 287.000,260.728 286.996,259.982 286.000 C 259.571 285.450,258.890 284.549,258.468 283.999 C 257.409 282.614,256.958 229.851,258.000 229.192 C 258.943 228.596,292.520 228.680,293.120 229.280 " stroke="none" fill="#28c8cb" fill-rule="evenodd"></path></g></svg>